<svg width="17" height="18" viewBox="0 0 17 18" fill="none" xmlns="http://www.w3.org/2000/svg">
<path fill-rule="evenodd" clip-rule="evenodd" d="M12 4.5005C12 4.22478 12.08 4 12.1786 4H16.8214C16.9196 4 17 4.22478 17 4.5005C17 4.77622 16.9196 5 16.8214 5H12.1786C12.08 5 12 4.77622 12 4.5005Z" fill="#727272"/>
<path d="M12.1016 15H7.48438V14.4453C7.89062 14.4193 8.22656 14.3672 8.49219 14.2891C8.76302 14.2109 8.89844 14.1146 8.89844 14C8.89844 13.9531 8.89323 13.8958 8.88281 13.8281C8.8724 13.7604 8.85677 13.7005 8.83594 13.6484L7.91406 11.1641H4.03125C3.88542 11.5286 3.76562 11.8464 3.67188 12.1172C3.58333 12.388 3.5026 12.638 3.42969 12.8672C3.36198 13.0911 3.3151 13.2734 3.28906 13.4141C3.26302 13.5547 3.25 13.6693 3.25 13.7578C3.25 13.9661 3.41406 14.1276 3.74219 14.2422C4.07031 14.3568 4.4401 14.4245 4.85156 14.4453V15H0.679688V14.4453C0.815104 14.4349 0.984375 14.4062 1.1875 14.3594C1.39062 14.3073 1.55729 14.2396 1.6875 14.1562C1.89583 14.0156 2.05729 13.8698 2.17188 13.7188C2.28646 13.5625 2.39844 13.349 2.50781 13.0781C3.0651 11.6875 3.67969 10.125 4.35156 8.39062C5.02344 6.65625 5.6224 5.11198 6.14844 3.75781H6.77344L10.4688 13.3203C10.5469 13.5234 10.6354 13.6875 10.7344 13.8125C10.8333 13.9375 10.9714 14.0599 11.1484 14.1797C11.2682 14.2526 11.4245 14.3151 11.6172 14.3672C11.8099 14.4141 11.9714 14.4401 12.1016 14.4453V15ZM7.63281 10.4688L5.95312 6.17188L4.30469 10.4688H7.63281Z" fill="#727272"/>
</svg>
